<?xml version="1.0" encoding="UTF-8" standalone="no"?>
<!-- Created with Inkscape (http://www.inkscape.org/) -->

<svg
   xmlns:dc="http://purl.org/dc/elements/1.1/"
   xmlns:cc="http://creativecommons.org/ns#"
   xmlns:rdf="http://www.w3.org/1999/02/22-rdf-syntax-ns#"
   xmlns:svg="http://www.w3.org/2000/svg"
   xmlns="http://www.w3.org/2000/svg"
   xmlns:sodipodi="http://sodipodi.sourceforge.net/DTD/sodipodi-0.dtd"
   xmlns:inkscape="http://www.inkscape.org/namespaces/inkscape"
   width="1366mm"
   height="400mm"
   viewBox="0 0 1366 400"
   version="1.1"
   id="svg8"
   sodipodi:docname="logo.svg"
   inkscape:version="0.92.2 (5c3e80d, 2017-08-06)">
  <defs
     id="defs2" />
  <sodipodi:namedview
     id="base"
     pagecolor="#ffffff"
     bordercolor="#666666"
     borderopacity="1.0"
     inkscape:pageopacity="0.0"
     inkscape:pageshadow="2"
     inkscape:zoom="0.175"
     inkscape:cx="1795.0416"
     inkscape:cy="1418.6708"
     inkscape:document-units="mm"
     inkscape:current-layer="flowRoot10"
     showgrid="false"
     inkscape:window-width="1920"
     inkscape:window-height="1028"
     inkscape:window-x="-4"
     inkscape:window-y="-4"
     inkscape:window-maximized="1" />
  <metadata
     id="metadata5">
    <rdf:RDF>
      <cc:Work
         rdf:about="">
        <dc:format>image/svg+xml</dc:format>
        <dc:type
           rdf:resource="http://purl.org/dc/dcmitype/StillImage" />
        <dc:title></dc:title>
      </cc:Work>
    </rdf:RDF>
  </metadata>
  <g
     inkscape:label="Layer 1"
     inkscape:groupmode="layer"
     id="layer1"
     transform="translate(0,103)">
    <flowRoot
       xml:space="preserve"
       id="flowRoot22"
       style="font-style:normal;font-variant:normal;font-weight:normal;font-stretch:normal;font-size:192px;line-height:1.25;font-family:'Typical Writer';-inkscape-font-specification:'Typical Writer';letter-spacing:0px;word-spacing:0px;fill:#000000;fill-opacity:1;stroke:none"
       transform="matrix(0.26458333,0,0,0.26458333,0,-471)"><flowRegion
         id="flowRegion24"><rect
           id="rect26"
           width="308.57144"
           height="360"
           x="4902.8569"
           y="2228.3916" /></flowRegion><flowPara
         id="flowPara28"></flowPara></flowRoot>    <g
       aria-label="asyncurban"
       transform="matrix(0.26458333,0,0,0.40138437,1.8858208,-561.35578)"
       style="font-style:normal;font-variant:normal;font-weight:normal;font-stretch:normal;font-size:192px;line-height:1.25;font-family:'Typical Writer';-inkscape-font-specification:'Typical Writer';letter-spacing:0px;word-spacing:0px;fill:#000000;fill-opacity:1;stroke:none"
       id="flowRoot10">
      <path
         d="m 580.11484,1809.0128 25.6,-28 -4,-56 -49.6,5.6 -25.6,-27.2 6.4,-11.2 -5.6,-43.2 4,-0.8 q 0.8,-56 2.4,-47.2 l -5.6,-92.8 -27.2,-33.6 q -20,-6.4 -38.4,-11.2 -18.4,-5.6 -36.8,-10.4 l -38.4,-2.4 q -18.4,-2.4 -28,-2.4 -8.8,0 -12,0.8 -3.2,0.8 -2.4,2.4 0.8,0.8 2.4,0.8 -27.2,0 -86.4,37.6 -11.2,51.2 -5.6,63.2 l 20,42.4 h 25.6 l 18.4,-14.4 16.8,-9.6 10.4,-10.4 q -11.2,-11.2 -16,-18.4 -4.8,-8 -4.8,-20.8 5.6,-6.4 9.6,-12.8 4.8,-6.4 11.2,-8.8 24,-8 32,-8 17.6,0 53.6,15.2 36.8,14.4 49.6,25.6 v 24 l -7.2,4 -9.6,8 q -13.6,4 -24,8 -10.4,3.2 -19.2,3.2 -6.4,8 -19.2,13.6 -12,4.8 -28,11.2 -16,6.4 -28.8,8 -12.8,0.8 -22.4,3.2 l -69.6,18.4 -27.2,40.8 -0.8,20 q 0,16.8 9.6,70.4 l 38.4,36.8 q 24,3.2 41.6,4 18.4,1.6 30.4,1.6 l 48.8,0.8 q 4,0 42.4,-12.8 l 45.6,-13.6 q 18.4,11.2 31.2,19.2 12.8,8 20.8,12 z m -112,-132.8 2.4,21.6 -28,40 q -52,16 -53.6,16 h -82.4 l -19.2,-24.8 -1.6,-22.4 -0.8,-18.4 44,-26.4 q 13.6,0.8 21.6,0.8 8,0 11.2,0.8 20.8,0 28.8,-1.6 l 28,-8 q 24.8,-7.2 26.4,-7.2 h 22.4 z"
         style="font-size:800px;fill:#446785;fill-opacity:1"
         id="path4538" />
      <path
         d="m 1039.0023,1731.4128 v 9.6 q -23.2,29.6 -65.59996,52 -42.4,23.2 -78.4,23.2 -12.8,0 -37.6,-10.4 -24.8,-10.4 -38.4,-10.4 -20.8,0 -79.2,5.6 l -12.8,-11.2 5.6,-121.6 7.2,-6.4 h 12.8 q 8.8,13.6 61.6,53.6 l 4,-3.2 4.8,22.4 13.6,6.4 26.4,-7.2 6.4,8 v 23.2 l 32,-14.4 7.2,6.4 h 24 q 8,-12 36.8,-24 v -20 l 24,-21.6 q -33.6,-64 -84.8,-64 -8.8,0 -27.2,4 -17.6,3.2 -26.4,3.2 -21.6,0 -99.2,-40 l -13.6,-29.6 q 0,-108 70.4,-108 h 96 l 51.2,31.2 q 24.8,-16 39.2,-30.4 21.59996,21.6 24.79996,41.6 l -15.2,29.6 8,39.2 h -9.6 q -56.79996,-86.4 -118.39996,-86.4 -57.6,0 -106.4,37.6 l -9.6,31.2 16,31.2 q 72,12 143.2,23.2 85.59996,20 113.59996,76 -6.4,32.8 -6.4,50.4 z"
         style="font-size:800px;fill:#446785;fill-opacity:1"
         id="path4540" />
      <path
         d="m 1325.0898,1477.0128 -1.6,-8 q 12.8,-5.6 14.4,-5.6 h 6.4 v 12.8 z m 224.8,11.2 h -4.8 l -9.6,-8 -29.6,14.4 q 2.4,11.2 -24,32.8 -1.6,36 -17.6,88.8 -18.4,61.6 -40.8,72 -13.6,156 -64.8,200 v 16.8 q -34.4,33.6 -110.4,33.6 -28,0 -48,-28 -18.4,-25.6 -18.4,-55.2 0,-26.4 9.6,-45.6 12.8,-23.2 36,-23.2 2.4,0 20,7.2 l 24.8,32.8 v 12.8 l -25.6,22.4 30.4,29.6 q 24,-7.2 59.2,-43.2 35.2,-36 35.2,-57.6 v -49.6 l -23.2,-16.8 q -9.6,-29.6 -18.4,-59.2 -14.4,-42.4 -25.6,-53.6 v -48 q -12.8,-14.4 -28.8,-43.2 -17.6,-32 -27.2,-44 l -14.4,-2.4 -4,6.4 q -12,-3.2 -28,2.4 l -8,-7.2 v -10.4 q 30.4,4 54.4,4.8 l 0.8,1.6 q 28,-8 40.8,-8 h 9.6 q 2.4,35.2 20,95.2 20,64.8 24,93.6 l 8,-1.6 q 2.4,48 32,70.4 l 28.8,-28.8 q 3.2,-34.4 30.4,-100 27.2,-65.6 28.8,-103.2 l -58.4,-14.4 7.2,-16 q 28.8,7.2 87.2,14.4 l 4.8,-22.4 24,24.8 12.8,-4 7.2,6.4 v 5.6 z"
         style="font-size:800px;fill:#446785;fill-opacity:1"
         id="path4542" />
      <path
         d="m 2021.5773,1801.0128 q -48,-5.6 -54.4,-5.6 -19.2,0 -76,5.6 l -12.8,-11.2 v -16.8 l 81.6,-16 6.4,-10.4 q -8,-35.2 -8,-49.6 l 0.8,-20 8,-8 -16,-133.6 -51.2,-29.6 q -55.2,11.2 -122.4,32 0,20.8 -2.4,63.2 -1.6,41.6 -1.6,62.4 0,8 2.4,24 3.2,16 3.2,24 0,0 -6.4,31.2 l 22.4,22.4 51.2,-6.4 q -13.6,37.6 -28,50.4 l -23.2,-8 -19.2,8 -5.6,-8 q -32,8.8 -28.8,8.8 -7.2,0 -21.6,-4 -14.4,-4 -21.6,-4 3.2,0 -46.4,7.2 -15.2,-11.2 -15.2,-19.2 0,-0.8 1.6,-14.4 29.6,-24.8 64,-24 l 16.8,-18.4 q 9.6,-68 9.6,-83.2 0,-16 -5.6,-49.6 -4.8,-34.4 -4,-52 l 0.8,-14.4 q -51.2,-23.2 -71.2,-55.2 v -21.6 l 17.6,-12 50.4,14.4 30.4,-20 27.2,25.6 h 6.4 l 24.8,24.8 86.4,-44.8 56.8,4.8 48.8,52.8 q 0,3.2 5.6,42.4 4,25.6 3.2,42.4 l -10.4,168.8 47.2,27.2 z"
         style="font-size:800px;fill:#446785;fill-opacity:1"
         id="path4544" />
      <path
         d="m 2319.6648,1824.2128 q -37.6,0 -94.4,-39.2 -60,-40.8 -65.6,-74.4 -5.6,-43.2 -5.6,-64.8 0,-40 32,-104.8 35.2,-69.6 68.8,-76.8 16.8,-1.6 50.4,-6.4 l 8,-8 q 62.4,0 95.2,17.6 23.2,12.8 68.8,62.4 l -4,70.4 -20.8,12.8 h -56.8 l -14.4,-31.2 31.2,-32 q -40.8,-52.8 -61.6,-52.8 -40.8,0 -77.6,23.2 -36,23.2 -58.4,59.2 2.4,57.6 8.8,82.4 12,46.4 44,68 12.8,11.2 26.4,22.4 14.4,11.2 34.4,11.2 21.6,0 62.4,-30.4 32.8,-24.8 54.4,-49.6 h 41.6 q 7.2,18.4 7.2,20.8 0,47.2 -64.8,85.6 -57.6,34.4 -109.6,34.4 z"
         style="font-size:800px;fill:#446785;fill-opacity:1"
         id="path4546" />
      <path
         d="m 3019.3523,1795.4128 q -48,15.2 -64,15.2 -19.2,0 -57.6,-12 -38.4,-12 -54.4,-23.2 l -95.2,33.6 q -29.6,-8 -38.4,-12 -21.6,-10.4 -28.8,-27.2 l -12.8,11.2 -10.4,-19.2 5.6,-107.2 q 0.8,-8 -2.4,-23.2 -3.2,-15.2 -3.2,-22.4 0,-9.6 3.2,-29.6 3.2,-20 3.2,-29.6 0,-35.2 -20,-50.4 -20.8,5.6 -38.4,5.6 l -10.4,-13.6 -8,-2.4 q -6.4,-8 -11.2,-18.4 l 17.6,-16.8 q 44.8,-3.2 46.4,-3.2 4.8,0 62.4,16 l 3.2,9.6 q 3.2,7.2 3.2,9.6 0,16.8 -15.2,88 l 8,7.2 q -7.2,40 -7.2,42.4 0,20 15.2,104.8 40.8,14.4 43.2,14.4 48,0 103.2,-34.4 13.6,-36 20,-88 4.8,-44.8 8.8,-90.4 l 9.6,-7.2 v -15.2 l -24.8,-16.8 h -64 l -4.8,-20.8 41.6,-18.4 41.6,15.2 22.4,-8.8 19.2,8 q 8,17.6 8,20 0,11.2 -4.8,32.8 -4,20.8 -4,32 0,-0.8 8,51.2 l -8.8,6.4 17.6,123.2 14.4,-9.6 q 27.2,14.4 71.2,41.6 z"
         style="font-size:800px;fill:#d5ad42;fill-opacity:1"
         id="path4548" />
      <path
         d="m 3475.0023,1549.0128 -20,13.6 h -4.8 l -21.6,-20 -6.4,-36 -15.2,-16 h -25.6 l -59.2,44.8 q -0.8,27.2 -42.4,57.6 l -16,76 16,14.4 v 43.2 l 24,25.6 7.2,-9.6 71.2,13.6 6.4,8 v 18.4 l -22.4,20 -48.8,7.2 -21.6,-8.8 -36,9.6 q -1.6,0 -54.4,-8.8 l -20,14.4 -72,-13.6 q -12.8,-19.2 -12.8,-39.2 24,-19.2 76,-21.6 l 8.8,8.8 h 17.6 q 24.8,-44 30.4,-92.8 l -8,-5.6 9.6,-27.2 -8,-9.6 6.4,-4.8 -8,-45.6 q 9.6,-10.4 9.6,-28.8 l -1.6,-16.8 -25.6,-23.2 -70.4,8.8 -21.6,-26.4 12.8,-27.2 65.6,6.4 9.6,-6.4 32,4.8 28.8,28.8 -7.2,44.8 16.8,22.4 q 31.2,-34.4 52.8,-71.2 h 21.6 l 13.6,-14.4 q 41.6,-10.4 43.2,-10.4 24,-5.6 43.2,-5.6 l 34.4,44 z"
         style="font-size:800px;fill:#d5ad42;fill-opacity:1"
         id="path4550" />
      <path
         d="m 3797.8898,1823.4128 q 66.4,0 108.8,-66.4 33.6,-53.6 40.8,-129.6 l -6.4,-6.4 -6.4,-59.2 q -20.8,-22.4 -36,-40.8 -14.4,-19.2 -22.4,-42.4 l -27.2,-8 h -14.4 q -22.4,-3.2 -30.4,-1.6 -7.2,1.6 -8,1.6 -16.8,0 -39.2,14.4 -21.6,13.6 -32.8,29.6 h -18.4 l -4.8,-12 14.4,-69.6 -8.8,-22.4 9.6,-36 -15.2,-27.2 -106.4,-5.6 q -7.2,0 -16,12 -8.8,11.2 -10.4,20.8 18.4,32.8 77.6,43.2 16,61.6 16,80 0,10.4 -0.8,26.4 -0.8,15.2 -2.4,36 -1.6,20.8 -2.4,36.8 -0.8,15.2 -0.8,25.6 0,16 7.2,47.2 7.2,30.4 7.2,46.4 0,1.6 -2.4,24 -1.6,21.6 -5.6,63.2 l 13.6,13.6 h 4 l 28.8,-23.2 h 26.4 l 20,23.2 q 20.8,3.2 31.2,4.8 11.2,1.6 12,1.6 z m 71.2,-202.4 q 4.8,13.6 6.4,23.2 2.4,9.6 5.6,16 l -9.6,53.6 q -19.2,21.6 -27.2,36 l -4.8,2.4 q -20,12 -27.2,20.8 -24,-2.4 -58.4,-28 -28.8,-20.8 -47.2,-45.6 2.4,-7.2 1.6,-16 -2.4,-15.2 -2.4,-16.8 0,-66.4 60.8,-136.8 3.2,1.6 6.4,0.8 4,-0.8 6.4,0 2.4,0 6.4,-0.8 4,-0.8 8,-0.8 1.6,0 6.4,0 4.8,0 11.2,0.8 11.2,1.6 17.6,0 l 36,44.8 6.4,38.4 z"
         style="font-size:800px;fill:#d5ad42;fill-opacity:1"
         id="path4552" />
      <path
         d="m 4419.1773,1809.0128 25.6,-28 -4,-56 -49.6,5.6 -25.6,-27.2 6.4,-11.2 -5.6,-43.2 4,-0.8 q 0.8,-56 2.4,-47.2 l -5.6,-92.8 -27.2,-33.6 q -20,-6.4 -38.4,-11.2 -18.4,-5.6 -36.8,-10.4 l -38.4,-2.4 q -18.4,-2.4 -28,-2.4 -8.8,0 -12,0.8 -3.2,0.8 -2.4,2.4 0.8,0.8 2.4,0.8 -27.2,0 -86.4,37.6 -11.2,51.2 -5.6,63.2 l 20,42.4 h 25.6 l 18.4,-14.4 16.8,-9.6 10.4,-10.4 q -11.2,-11.2 -16,-18.4 -4.8,-8 -4.8,-20.8 5.6,-6.4 9.6,-12.8 4.8,-6.4 11.2,-8.8 24,-8 32,-8 17.6,0 53.6,15.2 36.8,14.4 49.6,25.6 v 24 l -7.2,4 -9.6,8 q -13.6,4 -24,8 -10.4,3.2 -19.2,3.2 -6.4,8 -19.2,13.6 -12,4.8 -28,11.2 -16,6.4 -28.8,8 -12.8,0.8 -22.4,3.2 l -69.6,18.4 -27.2,40.8 -0.8,20 q 0,16.8 9.6,70.4 l 38.4,36.8 q 24,3.2 41.6,4 18.4,1.6 30.4,1.6 l 48.8,0.8 q 4,0 42.4,-12.8 l 45.6,-13.6 q 18.4,11.2 31.2,19.2 12.8,8 20.8,12 z m -112,-132.8 2.4,21.6 -28,40 q -52,16 -53.6,16 h -82.4 l -19.2,-24.8 -1.6,-22.4 -0.8,-18.4 44,-26.4 q 13.6,0.8 21.6,0.8 8,0 11.2,0.8 20.8,0 28.8,-1.6 l 28,-8 q 24.8,-7.2 26.4,-7.2 h 22.4 z"
         style="font-size:800px;fill:#d5ad42;fill-opacity:1"
         id="path4554" />
      <path
         d="m 4901.2648,1801.0128 q -48,-5.6 -54.4,-5.6 -19.2,0 -76,5.6 l -12.8,-11.2 v -16.8 l 81.6,-16 6.4,-10.4 q -8,-35.2 -8,-49.6 l 0.8,-20 8,-8 -16,-133.6 -51.2,-29.6 q -55.2,11.2 -122.4,32 0,20.8 -2.4,63.2 -1.6,41.6 -1.6,62.4 0,8 2.4,24 3.2,16 3.2,24 0,0 -6.4,31.2 l 22.4,22.4 51.2,-6.4 q -13.6,37.6 -28,50.4 l -23.2,-8 -19.2,8 -5.6,-8 q -32,8.8 -28.8,8.8 -7.2,0 -21.6,-4 -14.4,-4 -21.6,-4 3.2,0 -46.4,7.2 -15.2,-11.2 -15.2,-19.2 0,-0.8 1.6,-14.4 29.6,-24.8 64,-24 l 16.8,-18.4 q 9.6,-68 9.6,-83.2 0,-16 -5.6,-49.6 -4.8,-34.4 -4,-52 l 0.8,-14.4 q -51.2,-23.2 -71.2,-55.2 v -21.6 l 17.6,-12 50.4,14.4 30.4,-20 27.2,25.6 h 6.4 l 24.8,24.8 86.4,-44.8 56.8,4.8 48.8,52.8 q 0,3.2 5.6,42.4 4,25.6 3.2,42.4 l -10.4,168.8 47.2,27.2 z"
         style="font-size:800px;fill:#d5ad42;fill-opacity:1"
         id="path4556" />
    </g>
  </g>
</svg>
